<svg fill="none" height="915" viewBox="0 0 2035 915" width="2035" xmlns="http://www.w3.org/2000/svg" xmlns:xlink="http://www.w3.org/1999/xlink"><filter id="a" color-interpolation-filters="sRGB" filterUnits="userSpaceOnUse" height="604" width="1700" x="290" y="166"><feFlood flood-opacity="0" result="BackgroundImageFix"/><feColorMatrix in="SourceAlpha" result="hardAlpha" type="matrix" values="0 0 0 0 0 0 0 0 0 0 0 0 0 0 0 0 0 0 127 0"/><feOffset dy="10"/><feGaussianBlur stdDeviation="5"/><feComposite in2="hardAlpha" operator="out"/><feColorMatrix type="matrix" values="0 0 0 0 0 0 0 0 0 0 0 0 0 0 0 0 0 0 0.25 0"/><feBlend in2="BackgroundImageFix" mode="normal" result="effect1_dropShadow_18_10"/><feBlend in="SourceGraphic" in2="effect1_dropShadow_18_10" mode="normal" result="shape"/></filter><filter id="b" color-interpolation-filters="sRGB" filterUnits="userSpaceOnUse" height="820" width="820" x="45" y="58"><feFlood flood-opacity="0" result="BackgroundImageFix"/><feColorMatrix in="SourceAlpha" result="hardAlpha" type="matrix" values="0 0 0 0 0 0 0 0 0 0 0 0 0 0 0 0 0 0 127 0"/><feOffset dy="10"/><feGaussianBlur stdDeviation="5"/><feComposite in2="hardAlpha" operator="out"/><feColorMatrix type="matrix" values="0 0 0 0 0 0 0 0 0 0 0 0 0 0 0 0 0 0 0.25 0"/><feBlend in2="BackgroundImageFix" mode="normal" result="effect1_dropShadow_18_10"/><feBlend in="SourceGraphic" in2="effect1_dropShadow_18_10" mode="normal" result="shape"/></filter><g filter="url(#a)"><rect fill="#8f80cc" height="584" rx="292" width="1680" x="300" y="166"/></g><g filter="url(#b)"><path d="m855 458c0 220.911-179.089 400-400 400s-400-179.089-400-400 179.089-400 400-400 400 179.089 400 400z" fill="#ffcc4d"/></g><path d="m455 543.533c-65.911 0-109.667-7.688-163.756-18.2-12.378-2.355-36.4 0-36.4 36.4 0 72.778 83.622 163.756 200.156 163.756 116.533 0 200.155-90.978 200.155-163.756 0-36.4-24.044-38.777-36.4-36.4-54.089 10.512-97.822 18.2-163.755 18.2z" fill="#664500"/><path d="m425 130.911c-7.295-20.727-20.986-38.6007-39.098-51.0422-18.112-12.4414-39.708-18.8074-61.673-18.1795-21.964.628-43.161 8.2175-60.533 21.6735-17.371 13.456-30.019 32.0832-36.118 53.1932-13.499-9.456-29.058-15.557-45.386-17.799-16.328-2.241-32.955-.558-48.503 4.91-25.942 9.163-47.1831 28.252-59.0551 53.071s-13.4028 53.337-4.2559 79.284c2.7111 7.645 6.3111 14.734 10.4889 21.289 43.3551 79.6 168.6221 135.556 244.4671 136.245 58.6-48.156 121.022-170.334 104.844-259.489-.843-7.89-2.58-15.658-5.178-23.156zm60 0c9.159-25.946 28.246-47.1924 53.066-59.0688 24.819-11.8764 53.34-13.4103 79.29-4.2644 15.55 5.4979 29.565 14.623 40.885 26.6187 11.319 11.9955 19.616 26.5165 24.204 42.3595 13.499-9.456 29.057-15.557 45.385-17.799 16.329-2.241 32.956-.558 48.504 4.91 25.942 9.163 47.185 28.251 59.06 53.069 11.876 24.818 13.413 53.336 4.273 79.286-2.687 7.471-6.213 14.614-10.511 21.289-43.356 79.6-168.622 135.556-244.489 136.245-58.6-48.156-121-170.334-104.822-259.489.822-7.734 2.489-15.511 5.155-23.156z" fill="#dd2e44"/></svg>