<svg width="820" height="820" viewBox="0 0 820 820" fill="none" xmlns="http://www.w3.org/2000/svg">
<g filter="url(#filter0_d_18_2)">
<path d="M810 400C810 620.911 630.911 800 410 800C189.089 800 10 620.911 10 400C10 179.089 189.089 0 410 0C630.911 0 810 179.089 810 400Z" fill="#FFCC4D"/>
</g>
<path d="M410 485.533C344.089 485.533 300.333 477.845 246.244 467.333C233.866 464.978 209.844 467.333 209.844 503.733C209.844 576.511 293.466 667.489 410 667.489C526.533 667.489 610.155 576.511 610.155 503.733C610.155 467.333 586.111 464.956 573.755 467.333C519.666 477.845 475.933 485.533 410 485.533Z" fill="#664500"/>
<path d="M380 72.9111C372.705 52.184 359.014 34.3103 340.902 21.8688C322.79 9.42735 301.194 3.06137 279.229 3.68935C257.265 4.31733 236.068 11.9068 218.696 25.3628C201.325 38.8188 188.677 57.4455 182.578 78.5556C169.079 69.1 153.52 62.9986 137.192 60.7571C120.864 58.5156 104.237 60.1986 88.6891 65.6667C62.7474 74.8297 41.5059 93.9189 29.6339 118.738C17.7619 143.557 16.2311 172.075 25.378 198.022C28.0891 205.667 31.6891 212.756 35.8669 219.311C79.2225 298.911 204.489 354.867 280.334 355.556C338.934 307.4 401.356 185.222 385.178 96.0667C384.335 88.1769 382.598 80.4085 380 72.9111ZM440 72.9111C449.159 46.9653 468.246 25.7186 493.066 13.8422C517.885 1.9658 546.406 0.431906 572.356 9.57778C587.906 15.0757 601.921 24.2008 613.241 36.1965C624.56 48.1922 632.857 62.7131 637.445 78.5556C650.944 69.1 666.502 62.9986 682.83 60.7571C699.159 58.5156 715.786 60.1986 731.334 65.6667C757.276 74.8302 778.519 93.9182 790.394 118.736C802.27 143.554 803.807 172.072 794.667 198.022C791.98 205.493 788.454 212.636 784.156 219.311C740.8 298.911 615.534 354.867 539.667 355.556C481.067 307.4 418.667 185.222 434.845 96.0667C435.667 88.3333 437.334 80.5556 440 72.9111Z" fill="#DD2E44"/>
<defs>
<filter id="filter0_d_18_2" x="0" y="0" width="820" height="820" filterUnits="userSpaceOnUse" color-interpolation-filters="sRGB">
<feFlood flood-opacity="0" result="BackgroundImageFix"/>
<feColorMatrix in="SourceAlpha" type="matrix" values="0 0 0 0 0 0 0 0 0 0 0 0 0 0 0 0 0 0 127 0" result="hardAlpha"/>
<feOffset dy="10"/>
<feGaussianBlur stdDeviation="5"/>
<feComposite in2="hardAlpha" operator="out"/>
<feColorMatrix type="matrix" values="0 0 0 0 0 0 0 0 0 0 0 0 0 0 0 0 0 0 0.25 0"/>
<feBlend mode="normal" in2="BackgroundImageFix" result="effect1_dropShadow_18_2"/>
<feBlend mode="normal" in="SourceGraphic" in2="effect1_dropShadow_18_2" result="shape"/>
</filter>
</defs>
</svg>
